# xmcd CD database file
#
# Track frame offsets:
#	182
#	20952
#	40787
#
# Disc length: 857 seconds
#
# Revision: 3
# Processed by: cddbd v1.5.2PL0 Copyright (c) Steve Scherf et al.
# Submitted via: CDex 1.51
#
DISCID=20035703
DTITLE=Simply Red - The Air That I Breathe (Single)
DYEAR=1998
DGENRE=Soul
TTITLE0=The Air That I Breathe (Reprise)
TTITLE1=The Air That I Breathe
TTITLE2=Love Has Said Goodbye Again (Rae and Christian Mix)
EXTD=YEAR: 1998
EXTT0=
EXTT1=
EXTT2=
PLAYORDER=
